<svg width="19" height="19" viewBox="0 0 19 19" fill="none" xmlns="http://www.w3.org/2000/svg">
<path d="M13.7222 0C15.122 0 16.4644 0.55605 17.4542 1.54583C18.444 2.5356 19 3.87802 19 5.27778V13.7222C19 15.122 18.444 16.4644 17.4542 17.4542C16.4644 18.444 15.122 19 13.7222 19H5.27778C3.87802 19 2.5356 18.444 1.54583 17.4542C0.55605 16.4644 0 15.122 0 13.7222V5.27778C0 3.87802 0.55605 2.5356 1.54583 1.54583C2.5356 0.55605 3.87802 0 5.27778 0H13.7222ZM9.5 5.27778C8.3802 5.27778 7.30626 5.72262 6.51444 6.51444C5.72262 7.30626 5.27778 8.3802 5.27778 9.5C5.27778 10.6198 5.72262 11.6937 6.51444 12.4856C7.30626 13.2774 8.3802 13.7222 9.5 13.7222C10.6198 13.7222 11.6937 13.2774 12.4856 12.4856C13.2774 11.6937 13.7222 10.6198 13.7222 9.5C13.7222 8.3802 13.2774 7.30626 12.4856 6.51444C11.6937 5.72262 10.6198 5.27778 9.5 5.27778ZM9.5 7.38889C10.0599 7.38889 10.5969 7.61131 10.9928 8.00722C11.3887 8.40313 11.6111 8.9401 11.6111 9.5C11.6111 10.0599 11.3887 10.5969 10.9928 10.9928C10.5969 11.3887 10.0599 11.6111 9.5 11.6111C8.9401 11.6111 8.40313 11.3887 8.00722 10.9928C7.61131 10.5969 7.38889 10.0599 7.38889 9.5C7.38889 8.9401 7.61131 8.40313 8.00722 8.00722C8.40313 7.61131 8.9401 7.38889 9.5 7.38889ZM14.25 3.69444C13.97 3.69444 13.7016 3.80565 13.5036 4.00361C13.3057 4.20156 13.1944 4.47005 13.1944 4.75C13.1944 5.02995 13.3057 5.29844 13.5036 5.49639C13.7016 5.69435 13.97 5.80556 14.25 5.80556C14.53 5.80556 14.7984 5.69435 14.9964 5.49639C15.1943 5.29844 15.3056 5.02995 15.3056 4.75C15.3056 4.47005 15.1943 4.20156 14.9964 4.00361C14.7984 3.80565 14.53 3.69444 14.25 3.69444Z" fill="#EF6C00"/>
</svg>
